<svg width="192" height="192" viewBox="0 0 192 192" fill="none" xmlns="http://www.w3.org/2000/svg">
<g clip-path="url(#clip0_349_1715)">
<path d="M88 32V16C88 11.6 91.6 8 96 8C100.4 8 104 11.6 104 16V32C104 36.4 100.4 40 96 40C91.6 40 88 36.4 88 32ZM146.88 56.4L158.16 45.04C161.28 41.92 161.28 36.88 158.16 33.76C155.04 30.64 150 30.64 146.88 33.76L135.6 45.12C132.48 48.24 132.48 53.28 135.6 56.4C138.72 59.52 143.76 59.52 146.88 56.4ZM176 88H160C155.6 88 152 91.6 152 96C152 100.4 155.6 104 160 104H176C180.4 104 184 100.4 184 96C184 91.6 180.4 88 176 88ZM96 152C91.6 152 88 155.6 88 160V176C88 180.4 91.6 184 96 184C100.4 184 104 180.4 104 176V160C104 155.6 100.4 152 96 152ZM45.12 56.4L33.76 45.12C30.64 42 30.64 36.88 33.76 33.84C36.88 30.8 42 30.72 45.04 33.84L56.32 45.12C59.44 48.24 59.44 53.36 56.32 56.4C53.2 59.44 48.16 59.52 45.12 56.4ZM135.6 135.6C132.48 138.72 132.48 143.84 135.6 146.88L146.88 158.16C150 161.28 155.12 161.28 158.16 158.16C161.28 155.04 161.28 149.92 158.16 146.88L146.88 135.6C143.84 132.48 138.72 132.48 135.6 135.6ZM16 104H32C36.4 104 40 100.4 40 96C40 91.6 36.4 88 32 88H16C11.6 88 8 91.6 8 96C8 100.4 11.6 104 16 104ZM45.12 158.24L56.4 146.96C59.52 143.84 59.52 138.72 56.4 135.68C53.28 132.64 48.16 132.56 45.12 135.68L33.84 146.96C30.72 150.08 30.72 155.2 33.84 158.24C36.88 161.36 42 161.36 45.12 158.24ZM96 48C69.52 48 48 69.52 48 96C48 122.48 69.52 144 96 144C122.48 144 144 122.48 144 96C144 69.52 122.48 48 96 48Z" fill="black"/>
</g>
<defs>
<clipPath id="clip0_349_1715">
<rect width="192" height="192" fill="white"/>
</clipPath>
</defs>
</svg>
