<svg width="300" height="300" viewBox="0 0 300 300" fill="none" xmlns="http://www.w3.org/2000/svg">
<circle cx="150" cy="150" r="150" fill="black"/>
<path d="M149.07 2.34941C149.404 1.50674 150.596 1.50674 150.93 2.34941L192.373 107.065C192.475 107.322 192.678 107.525 192.935 107.627L297.651 149.07C298.493 149.404 298.493 150.596 297.651 150.93L192.935 192.373C192.678 192.475 192.475 192.678 192.373 192.935L150.93 297.651C150.596 298.493 149.404 298.493 149.07 297.651L107.627 192.935C107.525 192.678 107.322 192.475 107.065 192.373L2.34941 150.93C1.50674 150.596 1.50674 149.404 2.34941 149.07L107.065 107.627C107.322 107.525 107.525 107.322 107.627 107.065L149.07 2.34941Z" fill="white" stroke="black" stroke-width="1.5" stroke-linejoin="round"/>
</svg>
